<svg xmlns="http://www.w3.org/2000/svg" width="35" height="34.999" viewBox="0 0 35 34.999">
  <path id="Path_448" data-name="Path 448" d="M334.65,130.82a4.837,4.837,0,0,1,1.72,1.72,4.546,4.546,0,0,1,.64,2.36v25.6a4.538,4.538,0,0,1-.64,2.36,4.7,4.7,0,0,1-4.08,2.32h-25.6a4.659,4.659,0,0,1-2.36-.62,4.526,4.526,0,0,1-1.7-1.7,4.649,4.649,0,0,1-.62-2.36V134.9a4.649,4.649,0,0,1,.62-2.36,4.517,4.517,0,0,1,1.7-1.7,4.973,4.973,0,0,1,2.36-.66h25.6A4.54,4.54,0,0,1,334.65,130.82Zm-7.08,25.32a5.588,5.588,0,0,0,1-3.4,6.325,6.325,0,0,0-1.32-4.28,4.647,4.647,0,0,0-2.359-1.479,4.749,4.749,0,0,0,1.72-1.16,4.97,4.97,0,0,0,1.04-3.36,5.382,5.382,0,0,0-.521-2.2,5.938,5.938,0,0,0-2.12-2.4,8.05,8.05,0,0,0-4.4-1.12h-10.2v21.92h10.48Q325.689,158.659,327.57,156.14Zm-5.88-13.08a2.034,2.034,0,0,1-.4,1.4,2.428,2.428,0,0,1-2.12.841h-3.119v-4.36h3.159a2.53,2.53,0,0,1,2.04.8,2.423,2.423,0,0,1,.48,1.32h-.04Zm.6,7.28a3.3,3.3,0,0,1,.04,3.359,3.066,3.066,0,0,1-2.68,1.12h-3.6v-5.6h3.56A3.069,3.069,0,0,1,322.29,150.34Z" transform="translate(-302.01 -130.181)"/>
</svg>
